<?xml version="1.0" encoding="UTF-8"?>
<svg id="Layer_2" data-name="Layer 2" xmlns="http://www.w3.org/2000/svg" viewBox="0 0 723.28 530.87">
  <defs>
    <style>
      .cls-1 {
        fill: #e83527;
      }

      .cls-1, .cls-2, .cls-3, .cls-4, .cls-5, .cls-6, .cls-7, .cls-8, .cls-9, .cls-10 {
        stroke-width: 0px;
      }

      .cls-2 {
        fill: #268c43;
      }

      .cls-3 {
        fill: #164c95;
      }

      .cls-4 {
        fill: #58b947;
      }

      .cls-5 {
        fill: #3d7e3c;
      }

      .cls-6 {
        fill: #f79422;
      }

      .cls-7 {
        fill: #b6d55d;
      }

      .cls-8 {
        fill: #fff;
      }

      .cls-9 {
        fill: #8bc63f;
      }

      .cls-10 {
        fill: #9b398d;
      }
    </style>
  </defs>
  <g id="Layer_1-2" data-name="Layer 1">
    <g>
      <g>
        <g>
          <path class="cls-10" d="M321.67,258.9l13.82-4.55s-8.13-5.99-6.54-17.59c2.76-20.16,20.14-42.91,7.35-67.38,0,0,4.84,10.07-3.02,28.29-7.08,16.41-23.01,39.67-11.6,61.23Z"/>
          <path class="cls-6" d="M326.46,214.97c-.36-15.74-17.86-27.04-17.86-27.04,0,0,12.81,12.87,10.27,28.81-2.54,15.94-5.38,27.06,2.79,42.16"/>
          <path class="cls-3" d="M336.67,253.64s-6.03-14.35,11.6-16.45c0,0-6.97.07-8.84-6.55-1.87-6.62,1.76-16.05-.03-24.5,0,0-.26,3.85-3.36,11.23-3.09,7.38-4.63,13.75-5.39,20.25s2.89,12,6.02,16.02Z"/>
          <circle class="cls-3" cx="346.49" cy="226.51" r="4.58"/>
          <path class="cls-2" d="M297.76,166.86s-1.87,8.97,6.44,18.12c8.31,9.15,12.68,14.67,13.02,23.37,0,0-2.75-9.4-14.16-16.41-7.85-4.38-16.01-2.66-19.5-.02,0,0,3.2-6.11,12.81-8.21,0,0-2.6-8.98,1.4-16.85Z"/>
          <circle class="cls-2" cx="288.51" cy="178.01" r="4.64"/>
          <circle class="cls-10" cx="324.97" cy="189.7" r="6.58"/>
          <circle class="cls-1" cx="313.76" cy="132.15" r="4.56"/>
          <path class="cls-1" d="M300.28,136.62s11.32,3.77,22.14,17.19c10.83,13.42,13.45,26.83,12.64,34.13,0,0,3.03-13.7-2.6-26.76-6.9-16.01-8.26-30.97-2-39.3,0,0-10.27,7.61-9.88,21.77,0,0-7.33-7.88-20.31-7.02Z"/>
          <path class="cls-4" d="M280.55,189.09s.33,9.17-8.84,10.65c0,0-.86-8.16,8.84-10.65Z"/>
          <path class="cls-4" d="M273.57,184.66s-.82,9.14-10.1,9.46c0,0,.17-8.21,10.1-9.46Z"/>
          <path class="cls-5" d="M258.92,175.45s-5.57,7.29-13.59,2.61c0,0,4.52-6.85,13.59-2.61Z"/>
          <path class="cls-7" d="M257.8,154.09s-8.37,3.77-13.2-4.16c0,0,7.23-3.88,13.2,4.16Z"/>
          <path class="cls-7" d="M269.2,148.39s-8.67,3.03-12.79-5.29c0,0,7.54-3.24,12.79,5.29Z"/>
          <path class="cls-7" d="M268.04,131.91s-8.39,3.72-13.17-4.25c0,0,7.26-3.84,13.17,4.25Z"/>
          <path class="cls-5" d="M283.25,113.17s-8.77-2.71-7.15-11.85c0,0,7.99,1.87,7.15,11.85Z"/>
          <path class="cls-7" d="M342.37,126.61s4.09-8.22,12.85-5.13c0,0-3.14,7.58-12.85,5.13Z"/>
          <path class="cls-7" d="M341.28,162.93s8.82-2.56,12.48,5.97c0,0-7.7,2.83-12.48-5.97Z"/>
          <path class="cls-5" d="M349.53,156.13s8.75-2.79,12.64,5.64c0,0-7.63,3.03-12.64-5.64Z"/>
          <path class="cls-5" d="M261.39,166.21s-10.19,5.73-15.91-2.87c0,0,8.04-5.8,15.91,2.87Z"/>
          <path class="cls-5" d="M298.1,107.39s-9.69-4.06-6.82-14.29c0,0,8.89,3.02,6.82,14.29Z"/>
          <path class="cls-7" d="M319.84,103.23s-5.28-9.11,3.21-15.55c0,0,5.28,7.8-3.21,15.55Z"/>
          <g>
            <path class="cls-4" d="M301.17,168.12s3.04,5.22,10.26,1.5c0,0-4.27-4.89-10.26-1.5Z"/>
            <path class="cls-4" d="M318.63,158.74s2.66,5.43-4.45,9.37c0,0-1.69-6.27,4.45-9.37Z"/>
            <path class="cls-4" d="M305.72,156.03s8.62,2.33,6.91,12.54c0,0-8.45-1.62-6.91-12.54Z"/>
          </g>
          <g>
            <path class="cls-4" d="M286.12,158.09s4.8,3.68,10.06-2.52c0,0-5.81-2.9-10.06,2.52Z"/>
            <path class="cls-4" d="M298.7,142.77s4.52,4.01-.55,10.36c0,0-3.95-5.15.55-10.36Z"/>
            <path class="cls-4" d="M285.73,145.17s8.86-1.13,11.16,8.96c0,0-8.43,1.72-11.16-8.96Z"/>
          </g>
          <g>
            <path class="cls-4" d="M330.05,106.63s-2.62,5.44,4.51,9.34c0,0,1.65-6.28-4.51-9.34Z"/>
            <path class="cls-4" d="M347.61,115.82s-3,5.24-10.25,1.57c0,0,4.24-4.92,10.25-1.57Z"/>
            <path class="cls-4" d="M342.62,103.61s2.91,8.44-6.5,12.76c0,0-3.4-7.9,6.5-12.76Z"/>
          </g>
          <path class="cls-9" d="M266.1,177.08s7.03,2.82,11.49-4.93c0,0-7.78-2.67-11.49,4.93Z"/>
          <path class="cls-9" d="M278.4,156.8s-4.98,5.71.88,12.48c0,0,5.08-6.47-.88-12.48Z"/>
          <path class="cls-9" d="M263.67,161.85s2.01,10.62,14.61,8.55c0,0-2.64-10.77-14.61-8.55Z"/>
          <path class="cls-9" d="M299.51,116.59s3.42,6.76,11.89,3.88c0,0-4.08-7.14-11.89-3.88Z"/>
          <path class="cls-9" d="M322.13,109.48s-7.5,1-7.58,9.95c0,0,8.08-1.51,7.58-9.95Z"/>
          <path class="cls-9" d="M307.73,103.55s-5.49,9.3,5.33,16.07c0,0,5.13-9.83-5.33-16.07Z"/>
          <path class="cls-9" d="M270.66,134.33s7.22,4.11,13.23-3.66c0,0-8.06-4.05-13.23,3.66Z"/>
          <path class="cls-9" d="M287.37,113.89s-6.38,5.32-1.21,13.67c0,0,6.62-6.13,1.21-13.67Z"/>
          <path class="cls-9" d="M270.41,117.17s.4,11.84,14.34,11.7c0,0-1.05-12.1-14.34-11.7Z"/>
          <path class="cls-9" d="M335.61,129.23s-7,4.47-2.93,13.41c0,0,7.34-5.24,2.93-13.41Z"/>
          <path class="cls-9" d="M346.01,153.5s-2.01-8.06-11.77-7.05c0,0,2.63,8.63,11.77,7.05Z"/>
          <path class="cls-9" d="M350.96,137.24s-10.63-5.24-17.08,7.11c0,0,11.16,4.79,17.08-7.11Z"/>
          <path class="cls-5" d="M286.68,131.83s3.88,6.15,10.31,2.82c0,0-3.04-6.7-10.31-2.82Z"/>
          <path class="cls-5" d="M347.11,147.67s8.73-5.81,16.23,3.79c0,0-9.33,5.12-16.23-3.79Z"/>
        </g>
        <g>
          <path class="cls-8" d="M656.39,320.81c-7.59-.68-15.81-.72-24.38-.72-16.46,0-33.31.92-48.22,2.23.9,10.15.76,10.8,1.36,18.12-.31,2.31-.38,5.26,0,9.42.7,9.88,24.01,16.66,47.34,17.17,37.2.83,83.31-10.15,90.79-22.33-3.15-8.25-16.18-19.34-66.89-23.9Z"/>
          <path class="cls-8" d="M63.03,291.18c-2.38,2.8-3.57,6.47-3.61,10.16,4.17.42,8.58.79,13.27,1.07,8.77.55,17.64.82,26.38.82,3.8,0,7.56-.07,11.31-.16,0-.51-.02-1.03-.02-1.54,0-139.23,112.87-252.11,252.11-252.11,95.58,0,178.73,53.19,221.49,131.58,7.94-.5,15.63-.77,23.13-.77,6.62,0,13.15.19,19.44.57,4.91.3,9.57.64,14.02,1.02-.99-4.9-4.17-9.41-8.68-11.56l-10.72-5.09c-6.77-3.23-11.83-11.97-11.24-19.42l.93-11.85c.56-7.48-4.91-15.01-12.19-16.73l-11.55-2.78c-7.29-1.75-14.03-9.24-15.01-16.66l-1.55-11.77c-.98-7.43-7.9-13.66-15.39-13.88l-11.89-.31c-7.48-.2-15.64-6.14-18.13-13.18l-3.96-11.22c-2.51-7.05-10.54-11.71-17.92-10.36l-11.67,2.17c-7.36,1.34-16.59-2.74-20.5-9.13l-6.21-10.15c-3.92-6.38-12.76-9.25-19.69-6.38l-10.97,4.55c-6.92,2.85-16.79.78-21.95-4.64l-8.21-8.61c-5.16-5.42-14.42-6.39-20.6-2.14l-9.75,6.74c-6.17,4.24-16.25,4.24-22.43,0l-9.81-6.74c-6.17-4.25-15.43-3.28-20.6,2.14l-8.18,8.61c-5.18,5.43-15.04,7.49-21.96,4.64l-10.97-4.55c-6.91-2.87-15.76.01-19.67,6.39l-6.2,10.11c-3.91,6.4-13.13,10.5-20.49,9.16l-11.69-2.17c-7.36-1.35-15.41,3.3-17.9,10.36l-3.98,11.22c-2.5,7.04-10.65,12.99-18.13,13.18l-11.88.31c-7.48.22-14.4,6.44-15.37,13.85l-1.56,11.78c-.98,7.44-7.74,14.93-15.02,16.66l-11.56,2.79c-7.28,1.73-12.76,9.26-12.17,16.73l.91,11.83c.59,7.46-4.47,16.19-11.22,19.41l-10.73,5.11c-6.76,3.22-10.56,11.73-8.43,18.9l3.36,11.41c2.13,7.16-.99,16.77-6.92,21.33l-9.42,7.24c-5.94,4.57-7.87,13.69-4.29,20.25l5.68,10.44c3.58,6.57,2.54,16.6-2.31,22.31l-7.72,9.04Z"/>
          <path class="cls-8" d="M72.69,302.41c6.39.4,12.82.6,19.23.71-1.01-16.93-.5-12.32-1.57-30.05-.46-9.95-14.48-13.77-29.69-14.27-.88-.04-1.77-.05-2.66-.05-24.2,0-54,8.64-58.01,20.27,2.81,9,22.99,20.35,72.69,23.39Z"/>
          <path class="cls-8" d="M1.92,289.9l8.49,89.57c2.84,29.89,5.98,40.69,48.44,49.88,17.74,3.87,36.41,5.74,57.05,5.74,28.21,0,56.95-3.59,81.67-6.97,65.9-9.04,128.83-32.95,189.7-56.06,47.97-18.22,97.58-37.07,148.95-48.88,14.15-3.38,53.69-8.08,91.11-8.08,8.58,0,16.8.24,24.43.71,38.47,2.31,62.35,8.11,71.3,17.29l-8.48-89.45c-3.32-35.02-16.98-50.39-92.96-54.92-6.12-.36-12.51-.55-18.97-.55-22.43,0-46.32,2.19-75.19,6.88-64.47,10.53-123.26,32.75-180.11,54.23-76.63,28.96-155.86,58.9-247.77,58.9-8.76,0-17.64-.27-26.41-.81-38.42-2.32-62.29-8.19-71.24-17.5Z"/>
          <g>
            <path class="cls-2" d="M203.18,396.87c.41,2.69-1.25,4.32-4.99,4.88-5.11.78-10.88-1.06-17.29-5.52s-11.24-9.39-14.48-14.8c-.57,3.31-.97,5.55-1.19,6.72-.22,1.17-.54,3.03-.96,5.58-.42,2.55-.75,4.44-1,5.69-.25,1.24-.53,2.56-.86,3.95-.6,2.64-1.37,4.03-2.28,4.17-1.51.23-3.52-.75-6.03-2.95-2.51-2.2-3.89-4.08-4.13-5.66-.24-1.57.07-4.6.93-9.09,2.47-13.72,3.21-26.01,2.23-36.86-1.4-.79-2.72-2-3.97-3.62-1.25-1.62-1.97-3.02-2.15-4.2-.3-1.97,1.93-4.42,6.68-7.35,4.75-2.94,10.45-4.91,17.11-5.92,6.65-1.01,12.45-.29,17.38,2.18,4.94,2.47,7.79,6.23,8.56,11.27.57,3.74.02,7.49-1.65,11.27-1.67,3.78-3.66,6.83-5.95,9.16-2.3,2.33-4.42,4.45-6.38,6.35-1.96,1.91-2.9,3.09-2.83,3.55.24,1.57.99,2.99,2.25,4.23,1.26,1.25,2.99,2.66,5.17,4.24,2.18,1.58,4.06,2.9,5.63,3.97,1.57,1.07,2.86,1.96,3.88,2.68,1.01.72,2.02,1.47,3.01,2.26,2.03,1.44,3.13,2.71,3.3,3.82ZM181.74,348.63c-.42-2.75-3.32-3.72-8.69-2.9-2.56.39-5.49,1.58-8.81,3.56,2.02,2.24,3.19,4.41,3.51,6.51.58,3.8.69,8.08.34,12.83.64-.63,1.84-1.77,3.6-3.42,1.76-1.64,3.12-2.96,4.08-3.94.96-.98,2.02-2.24,3.2-3.76,2.3-2.97,3.22-5.92,2.77-8.87Z"/>
            <path class="cls-2" d="M210.65,357.14c3.09-8.49,7.07-13.37,11.94-14.65,4.87-1.28,9.43-.64,13.66,1.92,4.23,2.56,6.99,6.26,8.26,11.1,1.27,4.84,1.41,10.07.41,15.67-1,5.61-3.15,10.61-6.45,15.01-3.3,4.4-7.33,7.22-12.07,8.46-3.53.92-6.99.15-10.38-2.32-3.39-2.47-5.67-5.95-6.85-10.44-2.1-8.02-1.61-16.27,1.48-24.75ZM231.48,372.85c1.34-5.35,1.47-10.08.39-14.19-1.08-4.1-2.39-6.78-3.95-8.01-2.34,2.33-4.2,6.41-5.58,12.26-1.38,5.85-1.56,10.71-.54,14.59,1.02,3.88,2.05,6.23,3.08,7.06,3.06-2.45,5.26-6.35,6.6-11.7Z"/>
            <path class="cls-2" d="M274.36,326.8c2.39-.79,5.22-.16,8.49,1.9,3.27,2.06,5.27,4.23,6.03,6.49.5,1.51.09,2.48-1.23,2.92-.75.25-1.96.32-3.6.2-1.65-.12-3.21.07-4.69.56-1.48.49-3.48,1.71-6.01,3.67-2.53,1.96-3.53,3.75-2.98,5.39.21.63,1.36,1.26,3.46,1.89,2.09.63,4.36,1.25,6.79,1.84,2.43.59,4.87,1.72,7.31,3.4,2.44,1.67,4.09,3.82,4.96,6.43.86,2.61-.17,5.87-3.1,9.77-2.93,3.9-6.96,6.71-12.09,8.4-5.13,1.7-9.91,1.99-14.33.87-4.42-1.12-7.04-2.91-7.85-5.36-.81-2.46-.21-4.02,1.8-4.68.82-.27,1.9-.28,3.24-.03,3.75.79,7.97.4,12.66-1.15,4.69-1.55,6.83-2.96,6.41-4.22-.42-1.26-1.78-2.36-4.08-3.31-2.3-.95-4.73-1.73-7.28-2.36-2.55-.62-5.03-1.6-7.46-2.92-2.43-1.33-3.95-2.9-4.55-4.73-1.13-3.4.73-8.12,5.58-14.16,4.84-6.04,9.03-9.64,12.55-10.81Z"/>
            <path class="cls-2" d="M298.92,292.94c3.37,1.88,5.5,4.07,6.41,6.56.91,2.49,2.15,7.07,3.73,13.73,1.58,6.66,2.65,12.04,3.23,16.13,3.04,24.44,3.53,37.03,1.48,37.78-1.37.5-3.47.01-6.3-1.46-2.83-1.47-4.51-2.93-5.03-4.36-.05-.12-.38-3.67-1.02-10.64-.63-6.97-1.91-15.76-3.84-26.39-1.93-10.62-4.55-20.48-7.86-29.58-.66-1.81-.02-3.06,1.91-3.77,1.5-.54,3.92.12,7.29,2Z"/>
            <path class="cls-2" d="M316.94,297.98c-.61-1.61-.5-3.55.32-5.8.82-2.25,1.92-3.64,3.32-4.17,1.4-.53,3.69.53,6.87,3.16,3.18,2.63,5.06,4.71,5.63,6.22.57,1.52.51,2.87-.18,4.05-.69,1.18-1.56,1.97-2.62,2.36-1.8.68-4.32.28-7.57-1.2-3.25-1.47-5.17-3.02-5.78-4.63ZM322.7,309.09c2.17-.82,4.58-.3,7.22,1.54,2.64,1.84,4.39,3.91,5.25,6.21.44,1.18.96,5.82,1.56,13.92.6,8.1,1.06,15.8,1.4,23.11.16,2.7-.9,4.48-3.2,5.34-1.37.51-2.75.45-4.16-.19s-2.42-1.78-3.04-3.43c-.62-1.64-1.36-6.04-2.24-13.18-.88-7.14-1.76-13.18-2.66-18.12-.9-4.94-1.39-8.61-1.48-11.02-.09-2.41.36-3.8,1.35-4.17Z"/>
            <path class="cls-2" d="M370.6,291.06c3.23-1.21,6.61-.83,10.14,1.14,3.53,1.97,5.92,4.6,7.15,7.89,1.98,5.28,3.19,11.11,3.63,17.49.44,6.38.24,11.5-.62,15.37-.86,3.86-2.32,6.18-4.4,6.96-2.08.78-3.67-.29-4.76-3.21-.84-2.24-1.5-7.12-1.98-14.66-.54-6.17-1.26-10.47-2.17-12.89-.91-2.42-1.67-3.52-2.29-3.28-.81.3-1.45,1-1.92,2.1-.47,1.1-.84,2.05-1.11,2.86-.26.81-.54,1.81-.83,3.02-.29,1.21-.52,2.29-.7,3.24-.17.95-.39,2.17-.65,3.64-.26,1.48-.46,2.69-.61,3.62-.14.94-.33,2.16-.54,3.66-1.73,12.97-4.24,20.07-7.53,21.3-1.3.49-3.37-.03-6.21-1.55-2.84-1.52-4.45-2.81-4.85-3.87-.26-.68-.36-2.32-.31-4.93.05-2.6.05-4.59,0-5.95-.05-1.36-.19-2.78-.42-4.25-.23-1.47-.55-3.03-.96-4.69-.41-1.65-.73-2.93-.96-3.84-.23-.9-.64-2.31-1.21-4.22-2.46-8.28-3.66-12.93-3.58-13.95.08-1.02.36-1.62.86-1.81,2.36-.88,4.99-.75,7.9.39,2.91,1.14,4.66,2.52,5.27,4.13,1.44,3.85,2.52,9.75,3.23,17.69,1.38-8.59,2.9-15.76,4.53-21.5,1.64-5.75,3.6-9.05,5.9-9.91Z"/>
            <path class="cls-2" d="M420.23,244.15c1.51-.51,3.95.19,7.32,2.09,3.37,1.9,5.47,4.05,6.27,6.43.4,1.19.99,6.53,1.74,16,.76,9.47,1.23,15.2,1.41,17.17,2.31,23.37,2.31,35.45-.01,36.23-1.32.45-3.06.16-5.23-.85-2.17-1.02-3.5-2.28-4.01-3.79-.11-.31-.16-.58-.16-.79-4.54,7.28-8.17,11.38-10.9,12.3s-5.86.36-9.4-1.7c-3.53-2.06-5.7-4.28-6.51-6.67-.81-2.39-1.38-5.15-1.71-8.29-.33-3.14-.36-6.58-.08-10.32.27-3.73.82-7.33,1.65-10.8.82-3.46,2.19-6.55,4.11-9.27,1.92-2.71,4.22-4.53,6.92-5.44,4.02-1.36,8.01-.44,11.96,2.77-1.65-16.03-3.37-26.48-5.15-31.33-.64-1.88-.05-3.13,1.77-3.75ZM413.79,316.58c1.57-.53,3.77-2.78,6.59-6.75,2.82-3.96,4.44-8.33,4.86-13.09-.23-.48-.64-1.57-1.21-3.27-.58-1.7-1.68-3.11-3.32-4.23s-2.93-1.53-3.87-1.21c-1.88.64-3.35,2.25-4.4,4.85-1.05,2.6-1.6,5.44-1.67,8.55-.16,6.56.28,11.35,1.3,14.37.17.5.36.81.57.91.21.1.6.06,1.16-.13Z"/>
            <path class="cls-2" d="M488.6,277.53c1.43.71,2.26,1.48,2.49,2.31.23.83.31,2.66.26,5.5-.05,2.83,0,5,.13,6.51.14,1.51.24,2.7.31,3.58.07.88.13,1.56.2,2.06.07.5.12,1.12.15,1.87.03.75.06,1.34.08,1.78.02.44.02.96,0,1.54-.01.59-.07,1.05-.19,1.39-.11.34-.26.71-.42,1.09-.24.62-.81,1.05-1.71,1.29-.9.25-2.24-.35-4.04-1.78-1.8-1.43-3.37-3.34-4.71-5.73-4.34,7.78-8.55,12.23-12.64,13.35-2.75.75-6.14.04-10.17-2.12-4.03-2.16-6.46-4.77-7.29-7.81-.83-3.04-.64-7.75.58-14.13,1.21-6.38,3.55-12.62,7-18.72,3.45-6.1,7.52-9.79,12.19-11.06,2.69-.73,6.22-.01,10.59,2.16,4.37,2.17,6.91,4.56,7.62,7.15s.56,5.84-.43,9.76ZM464.82,300.32c2.56-.7,5.49-3.37,8.79-8.02,3.3-4.65,4.74-9.76,4.31-15.35-.15-.78.28-1.38,1.26-1.79-1.19-3.59-2.29-5.25-3.32-4.97-2.56.7-4.97,3.14-7.22,7.33-2.26,4.19-3.88,8.45-4.86,12.77-.98,4.33-1.23,7.38-.74,9.17.14.51.31.83.51.94.2.12.62.09,1.27-.09Z"/>
            <path class="cls-2" d="M507.81,225.9c3.06,2.34,4.87,4.81,5.41,7.4.54,2.6,1.12,7.3,1.73,14.12.61,6.82.91,12.29.89,16.43-.47,24.62-1.78,37.15-3.92,37.6-1.43.3-3.44-.48-6.03-2.35-2.59-1.86-4.04-3.54-4.35-5.03-.03-.13.14-3.69.51-10.67s.35-15.87-.04-26.66c-.39-10.79-1.58-20.92-3.56-30.4-.39-1.88.42-3.03,2.43-3.45,1.56-.33,3.87.68,6.93,3.02Z"/>
            <path class="cls-2" d="M562.35,268.71c-4,3.19-8.29,5.11-12.89,5.77s-8.41.88-11.46.64c-.34,1.86-.38,3.67-.12,5.44.25,1.77.73,2.99,1.43,3.66.7.67,2.23.83,4.59.5,4.92-.71,9.07-1.77,12.45-3.2,3.38-1.42,5.13-2.15,5.26-2.16,2.69-.39,4.16.3,4.42,2.08.37,2.56-1.4,5.29-5.3,8.2-3.9,2.91-8.63,4.76-14.17,5.56-5.55.8-10.24-.3-14.09-3.3-3.85-3-6.11-6.87-6.8-11.63-.68-4.76,0-9.93,2.04-15.52,2.04-5.58,4.91-10.44,8.61-14.55,3.69-4.11,7.62-6.47,11.79-7.07,4.17-.6,8.32.9,12.45,4.49,4.13,3.59,6.49,7.42,7.08,11.49.46,3.22-1.3,6.42-5.3,9.6ZM553.53,256.62c-1.56-1.05-2.94-1.49-4.16-1.31-1.22.17-2.65,1.27-4.3,3.28-1.65,2.01-3.13,4.52-4.44,7.52.6-.02,1.46-.11,2.57-.27,8.99-1.29,13.26-3.52,12.81-6.67-.09-.66-.92-1.51-2.48-2.56Z"/>
          </g>
        </g>
      </g>
      <g>
        <path class="cls-8" d="M148.13,483.43c2.41-.4,6.07-.6,10.97-.6s8.65.39,11.24,1.17c2.6.78,3.9,1.87,3.9,3.29,0,.67-.26,1.14-.79,1.43-.52.29-.98.51-1.37.67-.39.16-.91.3-1.57.43-.66.13-1.26.25-1.81.37-.55.11-1.26.21-2.15.3s-1.65.17-2.29.23c-.64.07-1.48.16-2.53.27-1.05.11-2.01.21-2.87.3-.87.09-3.14.42-6.83,1v.07c0,1.6-.71,5.83-2.12,12.71.59.04,1.67.07,3.25.07s3.63-.12,6.19-.37c2.55-.24,4.23-.37,5.02-.37s1.47.2,2.02.6.82.84.82,1.33c0,1.2-.73,2.26-2.19,3.19-1.46.93-3.28,1.66-5.47,2.2-4.37,1.06-8.23,1.64-11.55,1.73-1.37,5.63-2.2,9.08-2.5,10.35-.3,1.26-.6,2.47-.92,3.63-.59,2.26-1.14,3.39-1.64,3.39-.96,0-2.26-1.04-3.9-3.13-1.64-2.08-2.46-3.64-2.46-4.66,0-1.77,1.13-7.41,3.38-16.9,2.26-9.49,3.45-15.46,3.59-17.9v-.53c0-.58.07-1.06.2-1.46.5-1.46,1.96-2.4,4.38-2.79Z"/>
        <path class="cls-8" d="M178.17,503.92c3.53-4.97,7.03-7.45,10.49-7.45s6.38,1.19,8.75,3.56c2.37,2.37,3.55,5.23,3.55,8.58s-.82,6.75-2.46,10.21-3.94,6.33-6.9,8.62c-2.96,2.29-6.13,3.43-9.5,3.43-2.51,0-4.67-1.09-6.49-3.26-1.82-2.17-2.73-4.81-2.73-7.92,0-5.54,1.76-10.8,5.3-15.77ZM189.28,517.63c1.82-3.24,2.73-6.28,2.73-9.12s-.41-4.79-1.23-5.86c-1.96,1.11-3.91,3.44-5.84,6.99-1.94,3.55-2.91,6.67-2.91,9.35s.27,4.38.82,5.09c2.46-1.06,4.6-3.22,6.42-6.45Z"/>
        <path class="cls-8" d="M210.02,503.92c3.53-4.97,7.03-7.45,10.49-7.45s6.38,1.19,8.75,3.56c2.37,2.37,3.55,5.23,3.55,8.58s-.82,6.75-2.46,10.21-3.94,6.33-6.9,8.62c-2.96,2.29-6.13,3.43-9.5,3.43-2.51,0-4.67-1.09-6.49-3.26-1.82-2.17-2.73-4.81-2.73-7.92,0-5.54,1.76-10.8,5.3-15.77ZM221.13,517.63c1.82-3.24,2.73-6.28,2.73-9.12s-.41-4.79-1.23-5.86c-1.96,1.11-3.91,3.44-5.84,6.99-1.94,3.55-2.91,6.67-2.91,9.35s.27,4.38.82,5.09c2.46-1.06,4.6-3.22,6.42-6.45Z"/>
        <path class="cls-8" d="M266.1,477.91c1.09,0,2.53.96,4.31,2.89,1.78,1.93,2.67,3.74,2.67,5.42,0,.84-.8,4.35-2.39,10.51-1.6,6.17-2.55,9.89-2.87,11.18-3.65,15.3-6.31,22.96-8,22.96-.96,0-2.03-.55-3.21-1.66-1.19-1.11-1.78-2.2-1.78-3.26,0-.22.02-.4.07-.53-4.56,3.64-7.83,5.46-9.81,5.46s-3.9-1.03-5.74-3.09c-1.84-2.06-2.77-3.94-2.77-5.62s.24-3.56.72-5.62c.48-2.06,1.22-4.25,2.22-6.55,1-2.31,2.15-4.47,3.45-6.49,1.3-2.02,2.87-3.68,4.72-4.99,1.85-1.31,3.75-1.96,5.71-1.96,2.92,0,5.31,1.44,7.18,4.33,2.46-10.51,3.65-17.5,3.55-20.96,0-1.33.66-2,1.98-2ZM245.94,522.42c1.14,0,3.06-.95,5.78-2.86s4.73-4.33,6.05-7.25c-.05-.35-.07-1.13-.07-2.33s-.41-2.33-1.23-3.39c-.82-1.06-1.57-1.6-2.26-1.6-1.37,0-2.68.71-3.93,2.13-1.25,1.42-2.25,3.11-2.97,5.06-1.55,4.12-2.32,7.25-2.32,9.38,0,.36.06.59.17.7.11.11.38.17.79.17Z"/>
        <path class="cls-8" d="M329.73,481.97c1.28,0,2.67,1.1,4.17,3.29,1.5,2.2,2.25,4,2.25,5.42s-.3,2.13-.89,2.13c-.27,0-.85-.09-1.74-.27-.89-.18-1.65-.27-2.29-.27-2.28,0-4.94,1.42-8,4.26-3.05,2.84-5.66,6.23-7.83,10.18-2.17,3.95-3.25,7.36-3.25,10.25,0,1.42.23,2.45.68,3.09.46.64,1.28.96,2.46.96,3.14,0,6.33-.47,9.57-1.4s5.9-1.87,8-2.83c2.1-.95,3.29-1.43,3.59-1.43s.59.26.89.77c.3.51.44,1.12.44,1.83,0,1.51-1.23,3.29-3.69,5.36-2.46,2.06-5.43,3.83-8.92,5.29-3.49,1.46-6.64,2.2-9.47,2.2s-5.8-1.66-8.92-4.99c-3.12-3.33-4.68-6.5-4.68-9.51,0-4.21,1.39-9.02,4.17-14.41,2.78-5.39,6.37-10.06,10.76-14.01s8.62-5.92,12.68-5.92Z"/>
        <path class="cls-8" d="M349.25,503.92c3.53-4.97,7.03-7.45,10.49-7.45s6.38,1.19,8.75,3.56c2.37,2.37,3.55,5.23,3.55,8.58s-.82,6.75-2.46,10.21-3.94,6.33-6.9,8.62c-2.96,2.29-6.13,3.43-9.5,3.43-2.51,0-4.67-1.09-6.49-3.26-1.82-2.17-2.73-4.81-2.73-7.92,0-5.54,1.76-10.8,5.3-15.77ZM360.35,517.63c1.82-3.24,2.73-6.28,2.73-9.12s-.41-4.79-1.23-5.86c-1.96,1.11-3.91,3.44-5.84,6.99-1.94,3.55-2.91,6.67-2.91,9.35s.27,4.38.82,5.09c2.46-1.06,4.6-3.22,6.42-6.45Z"/>
        <path class="cls-8" d="M390.02,480.84c1.73,1.95,2.6,3.82,2.6,5.59s-.27,4.93-.82,9.48-1.12,8.17-1.71,10.88c-3.78,16.06-6.42,24.09-7.93,24.09-1,0-2.25-.79-3.73-2.36s-2.22-2.87-2.22-3.89c0-.09.62-2.4,1.84-6.92,1.23-4.52,2.47-10.35,3.73-17.47,1.25-7.12,1.88-13.92,1.88-20.39,0-1.29.71-1.93,2.12-1.93,1.09,0,2.51.98,4.24,2.93Z"/>
        <path class="cls-8" d="M408.88,480.84c1.73,1.95,2.6,3.82,2.6,5.59s-.27,4.93-.82,9.48-1.12,8.17-1.71,10.88c-3.78,16.06-6.42,24.09-7.93,24.09-1,0-2.25-.79-3.73-2.36s-2.22-2.87-2.22-3.89c0-.09.62-2.4,1.84-6.92,1.23-4.52,2.47-10.35,3.73-17.47,1.25-7.12,1.88-13.92,1.88-20.39,0-1.29.71-1.93,2.12-1.93,1.09,0,2.51.98,4.24,2.93Z"/>
        <path class="cls-8" d="M439.94,514.84c-3.03,1.73-6.14,2.59-9.33,2.59s-5.81-.22-7.86-.67c-.41,1.2-.62,2.4-.62,3.59s.21,2.05.62,2.56c.41.51,1.44.77,3.08.77,3.42,0,6.34-.31,8.78-.93,2.44-.62,3.7-.93,3.79-.93,1.87,0,2.8.6,2.8,1.8,0,1.73-1.47,3.37-4.41,4.92-2.94,1.55-6.33,2.33-10.18,2.33s-6.94-1.17-9.26-3.53c-2.32-2.35-3.49-5.13-3.49-8.35s.97-6.58,2.9-10.08c1.94-3.5,4.36-6.44,7.28-8.82,2.92-2.37,5.82-3.56,8.71-3.56s5.57,1.39,8.03,4.16c2.46,2.77,3.69,5.53,3.69,8.28,0,2.17-1.52,4.13-4.54,5.86ZM435.13,505.99c-.96-.84-1.86-1.26-2.7-1.26s-1.93.59-3.25,1.76c-1.32,1.18-2.57,2.7-3.76,4.56.41.04,1,.07,1.78.07,6.24,0,9.36-1.07,9.36-3.19,0-.44-.48-1.09-1.44-1.93Z"/>
        <path class="cls-8" d="M447.91,520.43c0-3.1,1-6.52,3.01-10.25,2-3.73,4.64-6.92,7.89-9.58,3.26-2.66,6.46-3.99,9.6-3.99,1.59,0,3.23,1.01,4.92,3.03,1.69,2.02,2.53,3.83,2.53,5.42,0,1.15-.55,1.73-1.64,1.73-.55,0-1.3-.24-2.26-.73-.96-.49-1.94-.73-2.94-.73s-2.43.83-4.27,2.5-3.49,3.66-4.92,5.99-2.15,4.16-2.15,5.49.26,2.2.79,2.59c.52.4,1.8.6,3.83.6s3.87-.18,5.54-.53c1.66-.35,2.89-.72,3.69-1.1.8-.38,1.51-.57,2.15-.57,1.28,0,1.91.53,1.91,1.6,0,1.95-1.75,3.94-5.26,5.96-3.51,2.02-7.02,3.03-10.53,3.03-2.23,0-4.77-1.21-7.62-3.63-2.85-2.42-4.27-4.69-4.27-6.82Z"/>
        <path class="cls-8" d="M498.11,509.48c-.71,2.15-1.57,4.85-2.6,8.08s-1.54,4.96-1.54,5.16.38.3,1.13.3,2.54-.5,5.37-1.5c2.82-1,4.49-1.5,4.99-1.5,1.14,0,1.71.75,1.71,2.26s-1.53,3.32-4.58,5.42c-3.05,2.11-6.24,3.16-9.57,3.16-1.46,0-3.19-.78-5.19-2.33-2.01-1.55-3.01-3.13-3.01-4.72,0-1.33.69-4.14,2.08-8.42,1.39-4.28,2.33-7.22,2.84-8.82-1.78.49-3.12.73-4.03.73s-1.87-.61-2.87-1.83c-1-1.22-1.5-2.38-1.5-3.49,0-1.42,3.53-2.62,10.59-3.59.87-4.12,1.3-7.7,1.3-10.71,0-1.33.68-2,2.05-2,1.18,0,2.7.7,4.54,2.1,1.85,1.4,2.77,2.77,2.77,4.13s-.3,3.25-.89,5.69c2.19-.09,3.85-.13,4.99-.13,3.42,0,5.13.75,5.13,2.26,0,.98-.99,1.81-2.97,2.5-1.98.69-5.02,1.43-9.12,2.23-.37,1.2-.9,2.87-1.61,5.02Z"/>
        <path class="cls-8" d="M521.25,496.54c1.59,0,3.02.89,4.27,2.66,1.25,1.78,1.88,3.48,1.88,5.12,0,.84-.79,3.87-2.36,9.08-1.57,5.21-3.13,10.15-4.68,14.8-.55,1.73-1.66,2.59-3.35,2.59-1,0-1.88-.37-2.63-1.1-.75-.73-1.13-1.69-1.13-2.86s.58-4.1,1.74-8.78c1.16-4.68,2.05-8.67,2.67-11.98.62-3.3,1.18-5.72,1.71-7.25.52-1.53,1.15-2.3,1.88-2.3ZM520.22,488.22c0-1.15.54-2.34,1.61-3.56,1.07-1.22,2.12-1.83,3.14-1.83s2.24,1.2,3.66,3.59,2.12,4.14,2.12,5.22-.37,1.92-1.09,2.5c-.73.58-1.48.87-2.25.87-1.32,0-2.85-.84-4.58-2.53-1.73-1.69-2.6-3.1-2.6-4.26Z"/>
        <path class="cls-8" d="M555.9,496.54c1.18,0,2.33.41,3.45,1.23,1.12.82,1.67,1.67,1.67,2.56,0,1.6-1.36,5.3-4.07,11.11-2.71,5.81-5.22,10.49-7.52,14.04-2.3,3.55-4.09,5.32-5.37,5.32-.68,0-1.67-.44-2.97-1.33-1.3-.89-2.13-1.77-2.49-2.66-1.09-2.57-2.42-7.33-3.96-14.27-1.55-6.94-2.32-11.34-2.32-13.21s.64-2.79,1.91-2.79c1.55,0,3.14.6,4.79,1.8,2.73,2.04,4.26,4.77,4.58,8.18.14,1.6.25,3.56.34,5.89.09,2.33.3,4.34.62,6.02,1.09-2.04,2.44-5.07,4.03-9.08,1.59-4.01,2.97-7.15,4.14-9.42,1.16-2.26,2.22-3.39,3.18-3.39Z"/>
        <path class="cls-8" d="M587.58,514.84c-3.03,1.73-6.14,2.59-9.33,2.59s-5.81-.22-7.86-.67c-.41,1.2-.62,2.4-.62,3.59s.21,2.05.62,2.56c.41.51,1.44.77,3.08.77,3.42,0,6.34-.31,8.78-.93,2.44-.62,3.7-.93,3.79-.93,1.87,0,2.8.6,2.8,1.8,0,1.73-1.47,3.37-4.41,4.92-2.94,1.55-6.33,2.33-10.18,2.33s-6.94-1.17-9.26-3.53c-2.32-2.35-3.49-5.13-3.49-8.35s.97-6.58,2.9-10.08c1.94-3.5,4.36-6.44,7.28-8.82,2.92-2.37,5.82-3.56,8.71-3.56s5.57,1.39,8.03,4.16c2.46,2.77,3.69,5.53,3.69,8.28,0,2.17-1.52,4.13-4.54,5.86ZM582.76,505.99c-.96-.84-1.86-1.26-2.7-1.26s-1.93.59-3.25,1.76c-1.32,1.18-2.57,2.7-3.76,4.56.41.04,1,.07,1.78.07,6.24,0,9.36-1.07,9.36-3.19,0-.44-.48-1.09-1.44-1.93Z"/>
      </g>
    </g>
  </g>
</svg>